<svg width="24" height="24" viewBox="0 0 24 24" fill="none" xmlns="http://www.w3.org/2000/svg">
<g clip-path="url(#clip0_327_1192)">
<path d="M17.2783 10.2894C17.5117 8.68897 16.2947 7.83872 14.6442 7.25522L15.1777 5.08791L13.8606 4.75447L13.3438 6.8551C12.9937 6.77174 12.6436 6.68838 12.2935 6.60502L12.827 4.48773L11.5099 4.1543L10.9764 6.32161C10.693 6.25492 10.4096 6.18823 10.1429 6.12155L8.32566 5.67141L7.97555 7.07183C7.97555 7.07183 8.95918 7.28856 8.92583 7.30523C9.45933 7.4386 9.55936 7.78871 9.54269 8.07212L8.92583 10.5395C8.95918 10.5562 9.00919 10.5562 9.05921 10.5895C9.00919 10.5729 8.97585 10.5729 8.92583 10.5562L8.05891 14.0072C7.99223 14.1739 7.82551 14.4073 7.45874 14.324C7.47541 14.3406 6.50845 14.0906 6.50845 14.0906L5.85826 15.591L7.57544 16.0245C7.8922 16.1078 8.20896 16.1912 8.50904 16.2746L7.95888 18.4585L9.27594 18.792L9.80943 16.6247C10.1762 16.7247 10.5096 16.808 10.8597 16.8914L10.3262 19.042L11.6433 19.3755L12.1935 17.1915C14.4441 17.6083 16.128 17.4416 16.8448 15.4076C17.4117 13.7738 16.8115 12.8235 15.6278 12.2067C16.4614 12.0233 17.1116 11.4565 17.2783 10.2894ZM14.2774 14.5074C13.8773 16.1412 11.1098 15.2576 10.2262 15.0409L10.9431 12.14C11.8434 12.3567 14.6942 12.8069 14.2774 14.5074ZM14.6775 10.2728C14.3108 11.7565 12.0101 11.0063 11.2765 10.8229L11.9267 8.18883C12.6769 8.37221 15.0777 8.72232 14.6775 10.2728Z" fill="white"/>
</g>
<defs>
<clipPath id="clip0_327_1192">
<rect width="24" height="24" fill="white"/>
</clipPath>
</defs>
</svg>
